<svg xmlns="http://www.w3.org/2000/svg" width="59.315" height="51.496" viewBox="0 0 59.315 51.496">
  <path id="Icon_material-camera-enhance" data-name="Icon material-camera-enhance" d="M23.76,4.5l-5.427,5.722h-9.4A5.847,5.847,0,0,0,3,15.944V50.274A5.847,5.847,0,0,0,8.931,56H56.383a5.847,5.847,0,0,0,5.931-5.722V15.944a5.847,5.847,0,0,0-5.931-5.722h-9.4L41.555,4.5Zm8.9,42.913a14.579,14.579,0,0,1-14.829-14.3A14.579,14.579,0,0,1,32.657,18.8a14.579,14.579,0,0,1,14.829,14.3A14.579,14.579,0,0,1,32.657,47.413Zm0-2.861L28.95,36.685Z" transform="translate(-3 -4.5)" fill="#00ca92"/>
</svg>
