<svg id="Icon_ionic-ios-arrow-dropdown" data-name="Icon ionic-ios-arrow-dropdown" xmlns="http://www.w3.org/2000/svg" width="26.33" height="26.33" viewBox="0 0 26.33 26.33">
  <path id="Path_117" data-name="Path 117" d="M10.339,14.775a1.226,1.226,0,0,0,0,1.728L16.4,22.541a1.22,1.22,0,0,0,1.684.038l5.969-5.95A1.22,1.22,0,1,0,22.326,14.9L17.2,19.952l-5.133-5.184A1.221,1.221,0,0,0,10.339,14.775Z" transform="translate(-4.035 -4.477)" fill="#ccc"/>
  <path id="Path_118" data-name="Path 118" d="M3.375,16.54A13.165,13.165,0,1,0,16.54,3.375,13.163,13.163,0,0,0,3.375,16.54ZM24.414,8.666A11.135,11.135,0,1,1,8.666,24.414,11.135,11.135,0,1,1,24.414,8.666Z" transform="translate(-3.375 -3.375)" fill="#ccc"/>
</svg>
