<svg id="delete" xmlns="http://www.w3.org/2000/svg" width="13.056" height="16.075" viewBox="0 0 13.056 16.075">
  <path id="Path_131" data-name="Path 131" d="M222.775,154.7a.376.376,0,0,0-.376.376v7.115a.376.376,0,0,0,.753,0V155.08A.376.376,0,0,0,222.775,154.7Zm0,0" transform="translate(-214.026 -148.879)" fill="#fff"/>
  <path id="Path_132" data-name="Path 132" d="M104.775,154.7a.376.376,0,0,0-.376.376v7.115a.376.376,0,0,0,.753,0V155.08A.376.376,0,0,0,104.775,154.7Zm0,0" transform="translate(-100.468 -148.879)" fill="#fff"/>
  <path id="Path_133" data-name="Path 133" d="M1.066,4.784V14.06a2.077,2.077,0,0,0,.552,1.433,1.854,1.854,0,0,0,1.345.582h7.123a1.853,1.853,0,0,0,1.345-.582,2.077,2.077,0,0,0,.552-1.433V4.784a1.438,1.438,0,0,0-.369-2.828H9.687V1.486A1.479,1.479,0,0,0,8.2,0H4.853A1.479,1.479,0,0,0,3.363,1.486v.471H1.435a1.438,1.438,0,0,0-.369,2.828Zm9.02,10.537H2.963A1.192,1.192,0,0,1,1.819,14.06V4.818h9.412V14.06A1.192,1.192,0,0,1,10.086,15.321ZM4.115,1.486A.725.725,0,0,1,4.853.752H8.2a.725.725,0,0,1,.738.734v.471H4.115ZM1.435,2.709h10.18a.678.678,0,1,1,0,1.355H1.435a.678.678,0,1,1,0-1.355Zm0,0" transform="translate(0.003 0.001)" fill="#fff"/>
  <path id="Path_134" data-name="Path 134" d="M163.775,154.7a.376.376,0,0,0-.376.376v7.115a.376.376,0,0,0,.753,0V155.08A.376.376,0,0,0,163.775,154.7Zm0,0" transform="translate(-157.247 -148.879)" fill="#fff"/>
</svg>
