<svg xmlns="http://www.w3.org/2000/svg" width="87.655" height="60" viewBox="0 0 87.655 60">
  <g id="empty-tray-24px" transform="translate(0 -65.077)">
    <path id="Path_3812" data-name="Path 3812" d="M87.645,94.586h.009a11.458,11.458,0,0,0-3.13-7.871l0,0L67.684,65.077H19.225L2.867,87.15l.007.007a11.475,11.475,0,0,0-2.663,6.7A1.694,1.694,0,0,0,0,94.636V123.35a1.727,1.727,0,0,0,1.727,1.727h84.2a1.726,1.726,0,0,0,1.727-1.727V94.636C87.655,94.618,87.645,94.6,87.645,94.586ZM20.79,68.531H66.173L76.454,83.086c-.109,0-.212-.017-.323-.017H55.414v5.178c0,5.879-6.173,4.608-8.066,4.608h-6.9c-1.893,0-8.066,1.271-8.066-4.608V83.069H11.665c-.216,0-.427.021-.641.031ZM84.2,121.623H3.456V94.636c0-.017-.009-.033-.01-.05H3.6a8.073,8.073,0,0,1,8.066-8.062H28.93v1.724c0,5.947,4.522,8.062,11.52,8.062h6.9c7,0,11.52-2.116,11.52-8.062V86.523H76.135a8.043,8.043,0,0,1,5.7,2.363l0,0a8.031,8.031,0,0,1,2.361,5.7h.012c0,.017-.01.033-.01.05C84.2,94.636,84.2,121.623,84.2,121.623Z" fill="#d3d3d3"/>
  </g>
</svg>
