<svg id="instagram" xmlns="http://www.w3.org/2000/svg" width="26" height="26" viewBox="0 0 26 26">
  <path id="Path_4" data-name="Path 4" d="M353.885,351.4a2.488,2.488,0,1,1-2.488-2.488A2.488,2.488,0,0,1,353.885,351.4Zm0,0" transform="translate(-338.396 -338.396)" fill="#fff"/>
  <path id="Path_5" data-name="Path 5" d="M240.3,230.09a2.472,2.472,0,0,0-1.417-1.417,4.129,4.129,0,0,0-1.386-.257c-.787-.036-1.023-.044-3.017-.044s-2.229.008-3.016.043a4.133,4.133,0,0,0-1.386.257,2.473,2.473,0,0,0-1.417,1.417,4.132,4.132,0,0,0-.257,1.386c-.036.787-.044,1.023-.044,3.017s.008,2.229.044,3.017a4.13,4.13,0,0,0,.257,1.386,2.472,2.472,0,0,0,1.417,1.417,4.125,4.125,0,0,0,1.386.257c.787.036,1.023.043,3.016.043s2.23-.008,3.017-.043a4.125,4.125,0,0,0,1.386-.257,2.472,2.472,0,0,0,1.417-1.417,4.134,4.134,0,0,0,.257-1.386c.036-.787.043-1.023.043-3.017s-.008-2.229-.043-3.017A4.124,4.124,0,0,0,240.3,230.09Zm-5.819,8.236a3.833,3.833,0,1,1,3.833-3.833A3.833,3.833,0,0,1,234.486,238.325Zm3.985-6.922a.9.9,0,1,1,.9-.9A.9.9,0,0,1,238.471,231.4Zm0,0" transform="translate(-221.486 -221.492)" fill="#fff"/>
  <path id="Path_6" data-name="Path 6" d="M13,0A13,13,0,1,0,26,13,13,13,0,0,0,13,0Zm7.42,16.078a5.477,5.477,0,0,1-.347,1.812,3.817,3.817,0,0,1-2.183,2.183,5.481,5.481,0,0,1-1.812.347c-.8.036-1.05.045-3.078.045s-2.282-.009-3.078-.045a5.481,5.481,0,0,1-1.812-.347A3.817,3.817,0,0,1,5.927,17.89a5.476,5.476,0,0,1-.347-1.812c-.037-.8-.045-1.051-.045-3.078s.009-2.282.045-3.078A5.477,5.477,0,0,1,5.927,8.11,3.82,3.82,0,0,1,8.11,5.927,5.482,5.482,0,0,1,9.922,5.58c.8-.036,1.05-.045,3.078-.045s2.282.009,3.078.045a5.483,5.483,0,0,1,1.812.347A3.818,3.818,0,0,1,20.073,8.11a5.476,5.476,0,0,1,.347,1.812c.036.8.045,1.05.045,3.078S20.456,15.282,20.42,16.078Zm0,0" transform="translate(0 0)" fill="#fff"/>
</svg>
