<svg id="Icon_ionic-ios-arrow-dropdown" data-name="Icon ionic-ios-arrow-dropdown" xmlns="http://www.w3.org/2000/svg" width="19.625" height="19.625" viewBox="0 0 19.625 19.625">
  <path id="Path_117" data-name="Path 117" d="M10.248,20.467a.914.914,0,0,1,0-1.288l4.515-4.5a.91.91,0,0,1,1.255-.028l4.449,4.434a.909.909,0,1,1-1.283,1.288l-3.821-3.765-3.826,3.864A.91.91,0,0,1,10.248,20.467Z" transform="translate(-5.549 -8.518)" fill="#ccc"/>
  <path id="Path_118" data-name="Path 118" d="M3.375,13.188A9.813,9.813,0,1,1,13.188,23,9.811,9.811,0,0,1,3.375,13.188Zm15.681,5.869A8.3,8.3,0,1,0,7.319,7.319,8.3,8.3,0,1,0,19.056,19.056Z" transform="translate(-3.375 -3.375)" fill="#ccc"/>
</svg>
