<svg xmlns="http://www.w3.org/2000/svg" width="19.376" height="19.376" viewBox="0 0 19.376 19.376">
  <path id="Icon_ionic-ios-close-circle" data-name="Icon ionic-ios-close-circle" d="M13.063,3.375a9.688,9.688,0,1,0,9.688,9.688A9.687,9.687,0,0,0,13.063,3.375Zm2.455,13.2-2.455-2.455-2.455,2.455a.744.744,0,1,1-1.053-1.053l2.455-2.455L9.556,10.609a.744.744,0,1,1,1.053-1.053l2.455,2.455,2.455-2.455a.744.744,0,0,1,1.053,1.053l-2.455,2.455,2.455,2.455a.748.748,0,0,1,0,1.053A.739.739,0,0,1,15.518,16.571Z" transform="translate(-3.375 -3.375)" fill="#e94b35"/>
</svg>
