<svg xmlns="http://www.w3.org/2000/svg" width="19.625" height="19.625" viewBox="0 0 19.625 19.625">
  <g id="Icon_ionic-ios-arrow-dropdown" data-name="Icon ionic-ios-arrow-dropdown" transform="translate(-3.375 -3.375)">
    <path id="Path_117" data-name="Path 117" d="M10.248,14.683a.914.914,0,0,0,0,1.288l4.515,4.5a.91.91,0,0,0,1.255.028l4.449-4.434a.909.909,0,1,0-1.283-1.288l-3.821,3.765-3.826-3.864A.91.91,0,0,0,10.248,14.683Z" transform="translate(-2.174 -3.632)" fill="#ccc"/>
    <path id="Path_118" data-name="Path 118" d="M3.375,13.188a9.813,9.813,0,1,0,9.813-9.812A9.811,9.811,0,0,0,3.375,13.188ZM19.056,7.319A8.3,8.3,0,1,1,7.319,19.056,8.3,8.3,0,1,1,19.056,7.319Z" fill="#ccc"/>
  </g>
</svg>
