<svg xmlns="http://www.w3.org/2000/svg" width="26" height="26" viewBox="0 0 26 26">
  <path id="twitter" d="M13,0A13,13,0,1,0,26,13,13,13,0,0,0,13,0Zm5.936,10.136q.009.192.009.386a8.432,8.432,0,0,1-8.49,8.49h0a8.446,8.446,0,0,1-4.574-1.34,6.069,6.069,0,0,0,.712.041A5.987,5.987,0,0,0,10.3,16.435a2.987,2.987,0,0,1-2.788-2.073,2.974,2.974,0,0,0,1.348-.051,2.985,2.985,0,0,1-2.394-2.925c0-.013,0-.026,0-.038a2.963,2.963,0,0,0,1.351.373,2.986,2.986,0,0,1-.924-3.984,8.472,8.472,0,0,0,6.15,3.118,2.985,2.985,0,0,1,5.085-2.721,5.985,5.985,0,0,0,1.895-.724,3,3,0,0,1-1.312,1.65,5.951,5.951,0,0,0,1.713-.47,6.064,6.064,0,0,1-1.488,1.545Zm0,0" fill="#fff"/>
</svg>
